<svg width="28" height="28" viewBox="0 0 28 28" fill="none" xmlns="http://www.w3.org/2000/svg">
<g clip-path="url(#clip0_2_163)">
<path fill-rule="evenodd" clip-rule="evenodd" d="M24.7186 9.34952V18.6505C24.7186 21.9995 21.9995 24.7186 18.6505 24.7186H9.34952C6.00047 24.7186 3.28141 21.9995 3.28141 18.6505V9.34952C3.28141 6.00047 6.00047 3.28141 9.34952 3.28141H18.6505C21.9995 3.28141 24.7186 6.00047 24.7186 9.34952Z" fill="black" stroke="black" stroke-opacity="0.1" stroke-width="6" stroke-linejoin="round"/>
<path fill-rule="evenodd" clip-rule="evenodd" d="M24.7186 9.34952V18.6505C24.7186 21.9995 21.9995 24.7186 18.6505 24.7186H9.34952C6.00047 24.7186 3.28141 21.9995 3.28141 18.6505V9.34952C3.28141 6.00047 6.00047 3.28141 9.34952 3.28141H18.6505C21.9995 3.28141 24.7186 6.00047 24.7186 9.34952Z" fill="black" stroke="#FAF0E4" stroke-width="2.07457"/>
<path d="M10.2918 19.1501C7.76455 19.1501 5.87534 17.1233 5.87534 14.621C5.87534 12.1313 7.76455 10.1044 10.1042 10.1044C11.6181 10.1044 12.9443 10.9677 13.6824 12.2314C13.7325 12.3064 13.6949 12.369 13.6199 12.394L12.3062 12.7944C12.2436 12.8194 12.1936 12.7944 12.1435 12.7318C11.6806 12.0937 10.9299 11.6558 10.1292 11.6558C8.70291 11.6558 7.51433 13.0571 7.51433 14.6335C7.51433 16.2225 8.70291 17.6112 10.3419 17.6112C11.7932 17.6112 12.5064 16.7855 12.7691 15.9973C12.7941 15.9222 12.7441 15.8847 12.6815 15.8847H10.3169C10.2418 15.8847 10.1918 15.8346 10.1918 15.7596V14.4959C10.1918 14.4208 10.2418 14.3708 10.3169 14.3708H13.7074C14.4456 14.3708 14.2955 14.3958 14.2955 16.0974C14.2955 17.4111 12.5689 19.1501 10.2918 19.1501ZM15.4416 19C15.3666 19 15.3165 18.95 15.3165 18.8749V10.3672C15.3165 10.2921 15.3666 10.2421 15.4416 10.2421H18.044C20.1334 10.2421 20.759 11.5683 20.759 12.7193C20.759 13.1947 20.5963 13.6952 20.3336 14.1081C20.296 14.1706 20.3086 14.2082 20.3711 14.2457C21.2719 14.7461 21.5472 15.672 21.5472 16.4227C21.5472 19 19.2951 19 16.968 19H15.4416ZM16.968 17.4111C16.968 17.4736 17.0056 17.5111 17.0681 17.5111C17.6061 17.5111 18.2567 17.5487 18.6195 17.5237C19.5328 17.4611 19.8957 16.9481 19.8957 16.2975C19.8957 15.6094 19.3827 15.184 18.7446 15.1715H18.7071H17.0681C17.0056 15.1715 16.968 15.2091 16.968 15.2716V17.4111ZM16.968 13.7577C16.968 13.8203 17.0056 13.8578 17.0681 13.8578H18.1441C19.6204 13.8578 19.4828 11.7559 18.1441 11.7559H17.0681C17.0056 11.7559 16.968 11.7935 16.968 11.856V13.7577Z" fill="#FAF0E4"/>
</g>
<defs>
<clipPath id="clip0_2_163">
<rect width="28" height="28" fill="white"/>
</clipPath>
</defs>
</svg>
