<svg width="247" height="26" viewBox="0 0 247 26" fill="none" xmlns="http://www.w3.org/2000/svg">
<rect width="247" height="24" fill="black"/>
<path opacity="0.4" d="M39.6767 1L33.873 22.6601" stroke="white"/>
<path fill-rule="evenodd" clip-rule="evenodd" d="M7.33264 1.56261C7.33264 1.252 7.08046 1 6.77003 1H2.55297C1.14388 1 0 2.14388 0 3.55279V20.4447C0 21.8536 1.14388 22.9978 2.55297 22.9978H6.77003C7.08046 22.9978 7.33264 22.7455 7.33264 22.4351V1.56261ZM19.5304 15.4805C18.912 14.3709 17.509 13.4702 16.3995 13.4702H9.94346C9.60205 13.4702 9.47935 13.7473 9.6696 14.0887L13.5167 20.9919C14.1352 22.1017 15.538 23.0025 16.6476 23.0025H23.1035C23.4449 23.0025 23.5678 22.7254 23.3773 22.3838L19.5304 15.4805ZM19.7996 6.13269C19.7996 3.2999 17.4996 1 14.6667 1H10.1378C9.80448 1 9.53399 1.27048 9.53399 1.60379V10.6616C9.53399 10.9949 9.80448 11.2656 10.1378 11.2656H14.6667C17.4996 11.2656 19.7996 8.96565 19.7996 6.13269Z" fill="white"/>
<path d="M53.7154 20.5659C51.9712 20.5659 50.493 20.0433 49.2808 18.998C47.9943 17.8848 47.3511 16.4499 47.3511 14.6934C47.3511 12.5534 47.9851 10.6082 49.253 8.85791C50.6693 6.91585 52.4351 5.94482 54.5503 5.94482C56.5852 5.94482 58.0974 6.40251 59.087 7.31787C60.1198 8.27035 60.6363 9.77327 60.6363 11.8267C60.6363 13.9666 60.0549 15.8963 58.8921 17.6157C57.5562 19.5825 55.8306 20.5659 53.7154 20.5659ZM54.5503 7.84668C53.035 7.84668 51.7517 8.60124 50.7002 10.1104C49.7292 11.4958 49.2437 13.0234 49.2437 14.6934C49.2437 15.887 49.6859 16.8581 50.5704 17.6064C51.4177 18.3115 52.466 18.6641 53.7154 18.6641C55.2183 18.6641 56.4584 17.9064 57.4356 16.3911C58.3077 15.0366 58.7437 13.5151 58.7437 11.8267C58.7437 10.3485 58.4128 9.30941 57.751 8.70947C57.1202 8.13428 56.0533 7.84668 54.5503 7.84668ZM66.6851 20.3247C66.0666 20.3247 65.3863 20.2257 64.6441 20.0278L64.6255 24.4624C64.6255 24.7345 64.5389 24.9572 64.3658 25.1304C64.1988 25.3035 63.9823 25.3901 63.7163 25.3901C63.4504 25.3901 63.2308 25.3035 63.0577 25.1304C62.8907 24.9572 62.8072 24.7345 62.8072 24.4624L62.835 20.7515V17.0498C62.8164 15.6953 62.7701 14.4614 62.6958 13.3481L62.5567 11.4648C62.5567 11.0257 62.6371 10.6546 62.7979 10.3516C62.9834 9.98665 63.2525 9.8042 63.605 9.8042C63.8462 9.8042 64.0472 9.89079 64.208 10.064C64.375 10.231 64.4585 10.4382 64.4585 10.6855C64.4585 10.7412 64.4493 10.8433 64.4307 10.9917C64.3998 11.1834 64.3781 11.3597 64.3658 11.5205C64.8977 11.1556 65.411 10.8835 65.9058 10.7041C66.4006 10.5186 66.8737 10.4258 67.3252 10.4258C68.5931 10.4258 69.5209 10.9886 70.1084 12.1143C70.5723 13.0049 70.8042 14.1831 70.8042 15.6489C70.8042 16.9849 70.4455 18.0858 69.7281 18.9517C68.9673 19.867 67.953 20.3247 66.6851 20.3247ZM67.3252 12.2812C66.7562 12.2812 66.2429 12.408 65.7852 12.6616C65.4574 12.841 65.043 13.1688 64.542 13.645C64.6224 15.049 64.6626 16.5241 64.6626 18.0703C65.3368 18.3301 66.0109 18.46 66.6851 18.46C67.4582 18.46 68.0489 18.1724 68.4571 17.5972C68.8096 17.0962 68.9859 16.4468 68.9859 15.6489C68.9859 14.5233 68.8467 13.6821 68.5684 13.1255C68.2963 12.5627 67.8819 12.2812 67.3252 12.2812ZM77.2427 20.4268C75.8449 20.4268 74.7131 20.0773 73.8472 19.3784C72.9009 18.6053 72.4278 17.5229 72.4278 16.1313C72.4278 14.5233 72.8174 13.175 73.5967 12.0864C74.444 10.8989 75.5759 10.3052 76.9922 10.3052C78.0189 10.3052 78.857 10.4784 79.5064 10.8247C80.3042 11.2515 80.7032 11.9071 80.7032 12.7915C80.7032 13.41 80.3537 13.9728 79.6548 14.48C79.3456 14.7026 78.69 15.049 77.688 15.519L74.1441 17.1982C74.4904 17.7116 74.9203 18.0981 75.4336 18.3579C75.9532 18.6177 76.5562 18.7476 77.2427 18.7476C77.6695 18.7476 78.1704 18.6672 78.7456 18.5063C79.4755 18.3022 79.9455 18.0363 80.1558 17.7085C80.3661 17.3745 80.5918 17.2075 80.833 17.2075C81.0495 17.2075 81.2412 17.291 81.4082 17.458C81.5814 17.6188 81.668 17.8075 81.668 18.0239C81.668 18.7104 81.1145 19.3011 80.0074 19.7959C79.0611 20.2165 78.1395 20.4268 77.2427 20.4268ZM76.9922 11.9751C76.2377 11.9751 75.6099 12.2689 75.1089 12.8564C74.6079 13.4378 74.2338 14.3161 73.9864 15.4912L76.8345 14.1367C77.954 13.5924 78.7518 13.1193 79.2281 12.7173C78.6962 12.2225 77.9509 11.9751 76.9922 11.9751ZM90.4351 20.6587C89.9032 20.6587 89.6032 20.368 89.5352 19.7866L89.2754 17.7549C89.1888 17.0312 89.1455 16.354 89.1455 15.7231C89.1455 15.55 89.1548 15.2562 89.1734 14.8418C89.1981 14.4274 89.2105 14.1336 89.2105 13.9604C89.2105 12.6245 88.9631 11.9565 88.4683 11.9565C87.7756 11.9565 87.1138 12.3678 86.4829 13.1904C85.9139 13.9388 85.4686 14.8851 85.147 16.0293C85.1346 16.2705 85.1068 16.5736 85.0635 16.9385C85.0264 17.2477 85.0079 17.5477 85.0079 17.8384C85.0079 18.0239 85.0264 18.3022 85.0635 18.6733C85.1006 19.0444 85.1192 19.3228 85.1192 19.5083C85.1192 19.7866 85.0326 20.0124 84.8594 20.1855C84.6924 20.3587 84.4759 20.4453 84.21 20.4453C83.9379 20.4453 83.7183 20.3587 83.5513 20.1855C83.3843 20.0124 83.3008 19.7866 83.3008 19.5083C83.3008 19.3228 83.2792 19.0444 83.2359 18.6733C83.1988 18.3022 83.1802 18.0239 83.1802 17.8384C83.1802 17.2013 83.2235 16.32 83.3101 15.1943C83.4029 14.0625 83.4493 13.1781 83.4493 12.541C83.4493 12.3431 83.4369 12.0493 83.4121 11.6597C83.3936 11.27 83.3843 10.9762 83.3843 10.7783C83.3843 10.5124 83.4709 10.2959 83.6441 10.1289C83.8234 9.95573 84.043 9.86914 84.3028 9.86914C84.8718 9.86914 85.1841 10.2712 85.2398 11.0752L85.2676 12.1606C86.3067 10.7752 87.3736 10.0825 88.4683 10.0825C89.4579 10.0825 90.1475 10.5186 90.5371 11.3906C90.8031 11.972 90.9484 12.8317 90.9732 13.9697V14.9067L90.9639 15.7695C90.9639 16.2829 91.0288 16.9478 91.1587 17.7642C91.2948 18.5744 91.3628 19.2331 91.3628 19.7402C91.3628 20.0124 91.2732 20.2319 91.0938 20.3989C90.9206 20.5721 90.701 20.6587 90.4351 20.6587ZM109.713 14.3872C109.33 16.286 108.523 17.8044 107.292 18.9424C106.067 20.0742 104.62 20.6401 102.95 20.6401C101.429 20.6401 100.288 20.2165 99.5269 19.3691C98.7662 18.5156 98.3858 17.2384 98.3858 15.5376C98.3858 13.9357 98.7631 12.2874 99.5176 10.5928C100.278 8.89193 101.252 7.51888 102.44 6.47363C103.232 5.77474 104.07 5.42529 104.954 5.42529C105.517 5.42529 106.259 5.61084 107.181 5.98193C108.306 6.42725 108.869 6.91895 108.869 7.45703C108.869 7.71061 108.776 7.93636 108.591 8.13428C108.405 8.33219 108.183 8.43115 107.923 8.43115C107.787 8.43115 107.595 8.35384 107.348 8.19922C106.401 7.62402 105.604 7.33643 104.954 7.33643C104.49 7.33643 104.005 7.57764 103.498 8.06006C103.244 8.30127 102.879 8.7404 102.403 9.37744C100.974 11.27 100.26 13.3234 100.26 15.5376C100.26 16.7004 100.439 17.5137 100.798 17.9775C101.188 18.4847 101.905 18.7383 102.95 18.7383C104.057 18.7383 105.019 18.3888 105.835 17.6899C106.695 16.9478 107.295 15.887 107.635 14.5078C105.922 14.5944 104.453 14.9253 103.229 15.5005C103.086 15.5685 102.947 15.6025 102.811 15.6025C102.539 15.6025 102.313 15.4974 102.134 15.2871C101.967 15.0954 101.883 14.8727 101.883 14.6191C101.883 14.279 102.047 14.0068 102.375 13.8027C103.711 12.9863 106.015 12.5781 109.287 12.5781C109.553 12.5781 109.775 12.6678 109.955 12.8472C110.134 13.0265 110.224 13.2523 110.224 13.5244C110.224 13.9264 110.054 14.214 109.713 14.3872ZM119.102 20.6123C118.985 20.6123 118.771 20.4762 118.462 20.2041C118.184 19.9505 117.976 19.7248 117.84 19.5269C117.247 19.8485 116.724 20.0897 116.272 20.2505C115.821 20.4175 115.444 20.501 115.141 20.501C113.693 20.501 112.639 20.0928 111.977 19.2764C111.352 18.5094 111.04 17.3343 111.04 15.751C111.04 14.2542 111.553 12.974 112.58 11.9102C113.613 10.8464 114.844 10.3145 116.272 10.3145C116.811 10.3145 117.414 10.4536 118.082 10.7319C118.923 11.0783 119.343 11.4958 119.343 11.9844C119.343 12.1514 119.281 12.2998 119.158 12.4297C119.096 12.6647 119.046 13.0513 119.009 13.5894C118.978 14.1274 118.96 14.8171 118.954 15.6582C118.947 16.4251 119 17.0312 119.111 17.4766C119.173 17.7487 119.368 18.293 119.696 19.1094C119.739 19.2207 119.81 19.3846 119.909 19.6011L119.965 19.7588C119.965 20.0062 119.878 20.2103 119.705 20.3711C119.532 20.5319 119.331 20.6123 119.102 20.6123ZM117.172 14.1646C117.172 13.8986 117.188 13.611 117.219 13.3018C117.256 12.9863 117.308 12.6523 117.377 12.2998C117.148 12.1823 116.95 12.0957 116.783 12.04C116.622 11.9844 116.492 11.9565 116.393 11.9565C115.434 11.9565 114.606 12.3493 113.907 13.1348C113.214 13.9141 112.868 14.814 112.868 15.8345C112.868 16.8488 113.047 17.6095 113.406 18.1167C113.765 18.6239 114.303 18.8774 115.02 18.8774C115.614 18.8774 116.118 18.7692 116.532 18.5527C116.755 18.4352 117.067 18.2002 117.469 17.8477C117.271 16.2087 117.172 14.981 117.172 14.1646ZM133.361 20.77C132.854 20.77 132.557 20.501 132.471 19.9629C132.359 19.2826 132.248 18.3239 132.137 17.0869L131.821 14.2109C131.759 13.7842 131.654 13.3667 131.506 12.9585C131.296 12.4019 131.067 12.1235 130.819 12.1235C130.591 12.1235 130.164 12.3184 129.539 12.708C128.945 13.0667 128.556 13.3543 128.37 13.5708C128.364 14.1522 128.379 14.7336 128.417 15.3149L128.695 17.792C128.812 18.7692 128.871 19.5763 128.871 20.2134C128.871 20.4855 128.785 20.7082 128.611 20.8813C128.444 21.0607 128.228 21.1504 127.962 21.1504C127.696 21.1504 127.476 21.0607 127.303 20.8813C127.136 20.7082 127.053 20.4855 127.053 20.2134C127.053 19.465 126.975 18.361 126.821 16.9014C126.672 15.4355 126.598 14.3285 126.598 13.5801C126.598 12.9245 126.505 12.4142 126.32 12.0493C125.887 12.2472 125.448 12.5688 125.002 13.0142L123.908 14.2388C123.809 14.3872 123.651 14.582 123.435 14.8232C123.435 15.1943 123.401 15.7417 123.333 16.4653C123.265 17.189 123.231 17.724 123.231 18.0703C123.231 18.2559 123.258 18.5156 123.314 18.8496C123.376 19.1836 123.407 19.4248 123.407 19.5732C123.407 19.8268 123.311 20.0402 123.119 20.2134C122.934 20.3866 122.714 20.4731 122.46 20.4731C121.762 20.4731 121.412 19.6784 121.412 18.0889C121.412 17.7178 121.446 17.1642 121.514 16.4282C121.582 15.6922 121.616 15.1387 121.616 14.7676C121.616 14.4398 121.585 13.9481 121.523 13.2925C121.468 12.6369 121.44 12.1421 121.44 11.8081C121.44 10.4041 121.755 9.70215 122.386 9.70215C122.627 9.70215 122.847 9.80729 123.045 10.0176C123.249 10.2279 123.351 10.4567 123.351 10.7041C123.351 10.8216 123.336 11.0041 123.305 11.2515C123.274 11.4989 123.258 11.6875 123.258 11.8174L123.277 12.7915C123.599 12.1297 124.072 11.5329 124.696 11.001C125.321 10.4629 125.853 10.1938 126.292 10.1938C127.263 10.1938 127.931 10.6763 128.296 11.6411C128.636 11.1896 129.041 10.8525 129.511 10.6299C129.981 10.401 130.519 10.2866 131.126 10.2866C132.158 10.2866 132.863 10.8433 133.241 11.9565C133.315 12.1792 133.442 13.0482 133.621 14.5635C133.794 15.6273 134.017 17.3993 134.289 19.8794C134.308 20.1268 134.224 20.3371 134.039 20.5103C133.853 20.6834 133.627 20.77 133.361 20.77ZM140.681 20.4268C139.283 20.4268 138.152 20.0773 137.286 19.3784C136.339 18.6053 135.866 17.5229 135.866 16.1313C135.866 14.5233 136.256 13.175 137.035 12.0864C137.883 10.8989 139.014 10.3052 140.431 10.3052C141.457 10.3052 142.295 10.4784 142.945 10.8247C143.743 11.2515 144.142 11.9071 144.142 12.7915C144.142 13.41 143.792 13.9728 143.093 14.48C142.784 14.7026 142.128 15.049 141.127 15.519L137.583 17.1982C137.929 17.7116 138.359 18.0981 138.872 18.3579C139.392 18.6177 139.995 18.7476 140.681 18.7476C141.108 18.7476 141.609 18.6672 142.184 18.5063C142.914 18.3022 143.384 18.0363 143.594 17.7085C143.805 17.3745 144.03 17.2075 144.272 17.2075C144.488 17.2075 144.68 17.291 144.847 17.458C145.02 17.6188 145.106 17.8075 145.106 18.0239C145.106 18.7104 144.553 19.3011 143.446 19.7959C142.5 20.2165 141.578 20.4268 140.681 20.4268ZM140.431 11.9751C139.676 11.9751 139.048 12.2689 138.547 12.8564C138.046 13.4378 137.672 14.3161 137.425 15.4912L140.273 14.1367C141.392 13.5924 142.19 13.1193 142.667 12.7173C142.135 12.2225 141.389 11.9751 140.431 11.9751ZM152.389 17.6899C152.383 17.4302 152.47 17.2199 152.649 17.0591C152.835 16.8921 153.06 16.8086 153.326 16.8086C153.629 16.8086 153.895 16.9818 154.124 17.3281C154.439 17.7982 154.721 18.1167 154.968 18.2837C155.494 18.63 156.258 18.8032 157.26 18.8032C158.218 18.8032 159.109 18.596 159.932 18.1816C160.983 17.6497 161.509 16.9106 161.509 15.9644C161.509 15.1851 161.067 14.5697 160.182 14.1182C159.434 13.7285 158.509 13.5182 157.408 13.4873C156.431 13.4502 155.599 13.2368 154.913 12.8472C154.034 12.3462 153.595 11.6287 153.595 10.6948C153.595 9.59391 154.22 8.58887 155.469 7.67969C156.663 6.81999 157.897 6.39014 159.171 6.39014C159.771 6.39014 160.448 6.49219 161.203 6.69629C162.205 6.96224 162.706 7.30241 162.706 7.7168C162.706 8.26107 162.427 8.5332 161.871 8.5332C161.623 8.5332 161.19 8.46826 160.572 8.33838C159.953 8.20231 159.474 8.13737 159.134 8.14355C158.169 8.15592 157.349 8.39404 156.675 8.85791C155.983 9.33415 155.636 9.91243 155.636 10.5928C155.636 11.1061 156.094 11.4679 157.009 11.6782C157.349 11.7586 158.008 11.8328 158.985 11.9009C160.402 12.006 161.509 12.4513 162.307 13.2368C163.036 13.9543 163.401 14.8294 163.401 15.8623C163.401 17.3343 162.721 18.5094 161.36 19.3877C160.179 20.1484 158.809 20.5288 157.251 20.5288C156.119 20.5288 155.083 20.3123 154.143 19.8794C152.992 19.3475 152.408 18.6177 152.389 17.6899ZM169.942 20.4268C168.544 20.4268 167.412 20.0773 166.546 19.3784C165.6 18.6053 165.127 17.5229 165.127 16.1313C165.127 14.5233 165.517 13.175 166.296 12.0864C167.143 10.8989 168.275 10.3052 169.691 10.3052C170.718 10.3052 171.556 10.4784 172.206 10.8247C173.003 11.2515 173.402 11.9071 173.402 12.7915C173.402 13.41 173.053 13.9728 172.354 14.48C172.045 14.7026 171.389 15.049 170.387 15.519L166.843 17.1982C167.19 17.7116 167.62 18.0981 168.133 18.3579C168.652 18.6177 169.255 18.7476 169.942 18.7476C170.369 18.7476 170.87 18.6672 171.445 18.5063C172.175 18.3022 172.645 18.0363 172.855 17.7085C173.065 17.3745 173.291 17.2075 173.532 17.2075C173.749 17.2075 173.94 17.291 174.107 17.458C174.281 17.6188 174.367 17.8075 174.367 18.0239C174.367 18.7104 173.814 19.3011 172.707 19.7959C171.76 20.2165 170.839 20.4268 169.942 20.4268ZM169.691 11.9751C168.937 11.9751 168.309 12.2689 167.808 12.8564C167.307 13.4378 166.933 14.3161 166.686 15.4912L169.534 14.1367C170.653 13.5924 171.451 13.1193 171.927 12.7173C171.395 12.2225 170.65 11.9751 169.691 11.9751ZM183.236 13.144C183.193 13.9172 182.884 14.3037 182.309 14.3037C181.777 14.3037 181.511 13.9976 181.511 13.3853C181.511 13.2677 181.502 13.0513 181.483 12.7358L181.455 11.9565C180.478 12.0741 179.696 12.3493 179.108 12.7822C178.557 13.1842 178.1 13.7904 177.735 14.6006L177.753 19.6846C177.753 20.3092 177.447 20.6216 176.835 20.6216C176.291 20.6216 176.019 20.3092 176.019 19.6846V13.1719C176.019 12.9678 176.025 12.6616 176.037 12.2534C176.056 11.8452 176.065 11.5391 176.065 11.335C176.065 10.7103 176.337 10.3979 176.881 10.3979C177.488 10.3979 177.794 10.9113 177.8 11.938C178.987 10.7938 180.305 10.2217 181.752 10.2217C182.253 10.2217 182.627 10.4103 182.875 10.7876C183.122 11.1649 183.246 11.7339 183.246 12.4946C183.246 12.8162 183.243 13.0327 183.236 13.144ZM189.424 19.5176C189.406 20.0866 189.124 20.3711 188.58 20.3711C188.129 20.3711 187.801 20.1051 187.597 19.5732L186.177 15.8066L184.526 11.5483C184.464 11.3875 184.433 11.2453 184.433 11.1216C184.433 10.868 184.529 10.6515 184.721 10.4722C184.912 10.2928 185.135 10.2031 185.389 10.2031C185.76 10.2031 186.026 10.3918 186.187 10.769L188.543 17.2539C189.007 16.2643 189.591 14.8294 190.296 12.9492C190.463 12.4544 190.726 11.7555 191.085 10.8525C191.277 10.4567 191.549 10.2588 191.901 10.2588C192.155 10.2588 192.378 10.3485 192.569 10.5278C192.761 10.7072 192.857 10.9206 192.857 11.168C192.857 11.403 192.347 12.7266 191.326 15.1387L189.424 19.5176ZM196.16 8.25488C195.863 8.25488 195.606 8.14974 195.39 7.93945C195.173 7.72917 195.065 7.47559 195.065 7.17871C195.065 6.88184 195.173 6.62826 195.39 6.41797C195.606 6.20768 195.863 6.10254 196.16 6.10254C196.457 6.10254 196.71 6.20768 196.92 6.41797C197.137 6.62826 197.245 6.88184 197.245 7.17871C197.245 7.47559 197.137 7.72917 196.92 7.93945C196.71 8.14974 196.457 8.25488 196.16 8.25488ZM196.577 15.7881C196.577 16.1592 196.586 16.7158 196.605 17.458C196.63 18.194 196.642 18.7476 196.642 19.1187C196.642 19.3908 196.559 19.6134 196.392 19.7866C196.225 19.9598 196.005 20.0464 195.733 20.0464C195.467 20.0464 195.247 19.9598 195.074 19.7866C194.907 19.6134 194.824 19.3908 194.824 19.1187C194.824 18.7476 194.811 18.194 194.787 17.458C194.768 16.7158 194.759 16.1592 194.759 15.7881C194.759 15.2067 194.79 14.4831 194.852 13.6172C194.913 12.7451 194.944 12.0184 194.944 11.437C194.944 11.1587 195.028 10.9329 195.195 10.7598C195.368 10.5866 195.588 10.5 195.854 10.5C196.12 10.5 196.336 10.5866 196.503 10.7598C196.676 10.9329 196.763 11.1587 196.763 11.437C196.763 12.0184 196.732 12.7451 196.67 13.6172C196.608 14.4831 196.577 15.2067 196.577 15.7881ZM203.906 20.5845C202.638 20.5845 201.581 20.201 200.733 19.4341C199.843 18.63 199.397 17.5693 199.397 16.252C199.397 14.9964 199.815 13.7007 200.65 12.3647C201.578 10.8804 202.623 10.1382 203.786 10.1382C204.392 10.1382 205.069 10.2804 205.817 10.5649C206.764 10.9299 207.237 11.3752 207.237 11.9009C207.237 12.1359 207.16 12.3462 207.005 12.5317C206.85 12.7111 206.659 12.8008 206.43 12.8008C206.25 12.8008 206.093 12.7482 205.957 12.6431C205.827 12.5317 205.7 12.4235 205.576 12.3184C205.211 12.0277 204.614 11.8823 203.786 11.8823C203.155 11.8823 202.53 12.4451 201.912 13.5708C201.349 14.6037 201.067 15.4974 201.067 16.252C201.067 17.0684 201.346 17.7116 201.902 18.1816C202.422 18.6208 203.09 18.8403 203.906 18.8403C204.277 18.8403 204.673 18.7414 205.094 18.5435L206.17 17.9683C206.356 17.8693 206.488 17.8198 206.569 17.8198C206.798 17.8198 206.996 17.9126 207.163 18.0981C207.33 18.2775 207.413 18.4847 207.413 18.7197C207.413 19.1712 206.937 19.6073 205.984 20.0278C205.149 20.3989 204.457 20.5845 203.906 20.5845ZM213.805 20.4268C212.407 20.4268 211.276 20.0773 210.41 19.3784C209.463 18.6053 208.99 17.5229 208.99 16.1313C208.99 14.5233 209.38 13.175 210.159 12.0864C211.007 10.8989 212.138 10.3052 213.555 10.3052C214.581 10.3052 215.419 10.4784 216.069 10.8247C216.867 11.2515 217.266 11.9071 217.266 12.7915C217.266 13.41 216.916 13.9728 216.217 14.48C215.908 14.7026 215.252 15.049 214.251 15.519L210.707 17.1982C211.053 17.7116 211.483 18.0981 211.996 18.3579C212.516 18.6177 213.119 18.7476 213.805 18.7476C214.232 18.7476 214.733 18.6672 215.308 18.5063C216.038 18.3022 216.508 18.0363 216.718 17.7085C216.929 17.3745 217.154 17.2075 217.396 17.2075C217.612 17.2075 217.804 17.291 217.971 17.458C218.144 17.6188 218.231 17.8075 218.231 18.0239C218.231 18.7104 217.677 19.3011 216.57 19.7959C215.624 20.2165 214.702 20.4268 213.805 20.4268ZM213.555 11.9751C212.8 11.9751 212.172 12.2689 211.671 12.8564C211.17 13.4378 210.796 14.3161 210.549 15.4912L213.397 14.1367C214.516 13.5924 215.314 13.1193 215.791 12.7173C215.259 12.2225 214.513 11.9751 213.555 11.9751ZM226.144 12.8564C225.804 12.8564 225.566 12.742 225.43 12.5132C225.337 12.3524 225.257 12.0184 225.189 11.5112C224.725 11.6287 224.01 11.8452 223.045 12.1606C222.05 12.5565 221.549 13.0451 221.543 13.6265C221.728 13.6945 221.911 13.744 222.09 13.7749C223.512 14.0285 224.57 14.3779 225.263 14.8232C226.271 15.4727 226.775 16.4128 226.775 17.6436C226.775 18.6517 226.339 19.4124 225.467 19.9258C224.743 20.3464 223.828 20.5566 222.721 20.5566C221.911 20.5566 221.137 20.4206 220.401 20.1484C219.449 19.8021 218.973 19.3197 218.973 18.7012C218.973 18.4538 219.069 18.2373 219.26 18.0518C219.458 17.8662 219.681 17.7734 219.928 17.7734C220.12 17.7734 220.367 17.9219 220.67 18.2188C220.819 18.361 221.153 18.4785 221.672 18.5713C222.087 18.6455 222.436 18.6826 222.721 18.6826C223.24 18.6826 223.698 18.6208 224.094 18.4971C224.669 18.3177 224.957 18.0332 224.957 17.6436C224.957 16.8024 224.369 16.2334 223.194 15.9365L222.229 15.7231C221.406 15.5438 220.822 15.3335 220.476 15.0923C219.975 14.7459 219.724 14.2233 219.724 13.5244C219.724 12.2318 220.333 11.3102 221.552 10.7598C221.923 10.5928 222.517 10.3949 223.333 10.166C224.149 9.93099 224.734 9.73307 225.086 9.57227C225.34 9.46094 225.615 9.40527 225.912 9.40527C226.178 9.40527 226.395 9.49186 226.562 9.66504C226.735 9.83822 226.821 10.064 226.821 10.3423C226.821 10.5216 226.858 10.7845 226.933 11.1309C227.013 11.4772 227.053 11.7401 227.053 11.9194C227.053 12.1978 226.967 12.4235 226.793 12.5967C226.627 12.7699 226.41 12.8564 226.144 12.8564Z" fill="white"/>
</svg>
