<svg width="223" height="26" viewBox="0 0 223 26" fill="none" xmlns="http://www.w3.org/2000/svg">
<rect width="223" height="24" fill="white"/>
<path opacity="0.3" d="M35 1L29.1962 22.6601" stroke="black"/>
<path fill-rule="evenodd" clip-rule="evenodd" d="M7.33264 1.56261C7.33264 1.252 7.08046 1 6.77003 1H2.55297C1.14388 1 0 2.14388 0 3.55279V20.4447C0 21.8536 1.14388 22.9978 2.55297 22.9978H6.77003C7.08046 22.9978 7.33264 22.7455 7.33264 22.4351V1.56261ZM19.5304 15.4805C18.912 14.3709 17.509 13.4702 16.3995 13.4702H9.94346C9.60205 13.4702 9.47935 13.7473 9.6696 14.0887L13.5167 20.9919C14.1352 22.1017 15.538 23.0025 16.6476 23.0025H23.1035C23.4449 23.0025 23.5678 22.7254 23.3773 22.3838L19.5304 15.4805ZM19.7996 6.13269C19.7996 3.2999 17.4996 1 14.6667 1H10.1378C9.80448 1 9.53399 1.27048 9.53399 1.60379V10.6616C9.53399 10.9949 9.80448 11.2656 10.1378 11.2656H14.6667C17.4996 11.2656 19.7996 8.96565 19.7996 6.13269Z" fill="black"/>
<path d="M46.4404 20.5659C44.6963 20.5659 43.2181 20.0433 42.0059 18.998C40.7194 17.8848 40.0762 16.4499 40.0762 14.6934C40.0762 12.5534 40.7101 10.6082 41.978 8.85791C43.3944 6.91585 45.1602 5.94482 47.2754 5.94482C49.3102 5.94482 50.8224 6.40251 51.812 7.31787C52.8449 8.27035 53.3613 9.77327 53.3613 11.8267C53.3613 13.9666 52.7799 15.8963 51.6172 17.6157C50.2812 19.5825 48.5557 20.5659 46.4404 20.5659ZM47.2754 7.84668C45.7601 7.84668 44.4767 8.60124 43.4253 10.1104C42.4543 11.4958 41.9688 13.0234 41.9688 14.6934C41.9688 15.887 42.411 16.8581 43.2954 17.6064C44.1427 18.3115 45.1911 18.6641 46.4404 18.6641C47.9434 18.6641 49.1834 17.9064 50.1606 16.3911C51.0327 15.0366 51.4688 13.5151 51.4688 11.8267C51.4688 10.3485 51.1379 9.30941 50.4761 8.70947C49.8452 8.13428 48.7783 7.84668 47.2754 7.84668ZM59.4102 20.3247C58.7917 20.3247 58.1113 20.2257 57.3691 20.0278L57.3506 24.4624C57.3506 24.7345 57.264 24.9572 57.0908 25.1304C56.9238 25.3035 56.7074 25.3901 56.4414 25.3901C56.1755 25.3901 55.9559 25.3035 55.7827 25.1304C55.6157 24.9572 55.5322 24.7345 55.5322 24.4624L55.5601 20.7515V17.0498C55.5415 15.6953 55.4951 14.4614 55.4209 13.3481L55.2817 11.4648C55.2817 11.0257 55.3621 10.6546 55.5229 10.3516C55.7085 9.98665 55.9775 9.8042 56.3301 9.8042C56.5713 9.8042 56.7723 9.89079 56.9331 10.064C57.1001 10.231 57.1836 10.4382 57.1836 10.6855C57.1836 10.7412 57.1743 10.8433 57.1558 10.9917C57.1248 11.1834 57.1032 11.3597 57.0908 11.5205C57.6227 11.1556 58.1361 10.8835 58.6309 10.7041C59.1257 10.5186 59.5988 10.4258 60.0503 10.4258C61.3182 10.4258 62.2459 10.9886 62.8335 12.1143C63.2974 13.0049 63.5293 14.1831 63.5293 15.6489C63.5293 16.9849 63.1706 18.0858 62.4531 18.9517C61.6924 19.867 60.6781 20.3247 59.4102 20.3247ZM60.0503 12.2812C59.4813 12.2812 58.9679 12.408 58.5103 12.6616C58.1825 12.841 57.7681 13.1688 57.2671 13.645C57.3475 15.049 57.3877 16.5241 57.3877 18.0703C58.0618 18.3301 58.736 18.46 59.4102 18.46C60.1833 18.46 60.7739 18.1724 61.1821 17.5972C61.5347 17.0962 61.7109 16.4468 61.7109 15.6489C61.7109 14.5233 61.5718 13.6821 61.2935 13.1255C61.0213 12.5627 60.6069 12.2812 60.0503 12.2812ZM69.9678 20.4268C68.57 20.4268 67.4382 20.0773 66.5723 19.3784C65.626 18.6053 65.1528 17.5229 65.1528 16.1313C65.1528 14.5233 65.5425 13.175 66.3218 12.0864C67.1691 10.8989 68.3009 10.3052 69.7173 10.3052C70.744 10.3052 71.582 10.4784 72.2314 10.8247C73.0293 11.2515 73.4282 11.9071 73.4282 12.7915C73.4282 13.41 73.0788 13.9728 72.3799 14.48C72.0706 14.7026 71.415 15.049 70.4131 15.519L66.8691 17.1982C67.2155 17.7116 67.6453 18.0981 68.1587 18.3579C68.6782 18.6177 69.2812 18.7476 69.9678 18.7476C70.3945 18.7476 70.8955 18.6672 71.4707 18.5063C72.2005 18.3022 72.6706 18.0363 72.8809 17.7085C73.0911 17.3745 73.3169 17.2075 73.5581 17.2075C73.7746 17.2075 73.9663 17.291 74.1333 17.458C74.3065 17.6188 74.3931 17.8075 74.3931 18.0239C74.3931 18.7104 73.8395 19.3011 72.7324 19.7959C71.7861 20.2165 70.8646 20.4268 69.9678 20.4268ZM69.7173 11.9751C68.9627 11.9751 68.335 12.2689 67.834 12.8564C67.333 13.4378 66.9588 14.3161 66.7114 15.4912L69.5596 14.1367C70.679 13.5924 71.4769 13.1193 71.9531 12.7173C71.4212 12.2225 70.6759 11.9751 69.7173 11.9751ZM83.1602 20.6587C82.6283 20.6587 82.3283 20.368 82.2603 19.7866L82.0005 17.7549C81.9139 17.0312 81.8706 16.354 81.8706 15.7231C81.8706 15.55 81.8799 15.2562 81.8984 14.8418C81.9232 14.4274 81.9355 14.1336 81.9355 13.9604C81.9355 12.6245 81.6882 11.9565 81.1934 11.9565C80.5007 11.9565 79.8389 12.3678 79.208 13.1904C78.639 13.9388 78.1937 14.8851 77.8721 16.0293C77.8597 16.2705 77.8319 16.5736 77.7886 16.9385C77.7515 17.2477 77.7329 17.5477 77.7329 17.8384C77.7329 18.0239 77.7515 18.3022 77.7886 18.6733C77.8257 19.0444 77.8442 19.3228 77.8442 19.5083C77.8442 19.7866 77.7576 20.0124 77.5845 20.1855C77.4175 20.3587 77.201 20.4453 76.9351 20.4453C76.6629 20.4453 76.4434 20.3587 76.2764 20.1855C76.1094 20.0124 76.0259 19.7866 76.0259 19.5083C76.0259 19.3228 76.0042 19.0444 75.9609 18.6733C75.9238 18.3022 75.9053 18.0239 75.9053 17.8384C75.9053 17.2013 75.9486 16.32 76.0352 15.1943C76.1279 14.0625 76.1743 13.1781 76.1743 12.541C76.1743 12.3431 76.1619 12.0493 76.1372 11.6597C76.1187 11.27 76.1094 10.9762 76.1094 10.7783C76.1094 10.5124 76.196 10.2959 76.3691 10.1289C76.5485 9.95573 76.7681 9.86914 77.0278 9.86914C77.5968 9.86914 77.9092 10.2712 77.9648 11.0752L77.9927 12.1606C79.0317 10.7752 80.0986 10.0825 81.1934 10.0825C82.1829 10.0825 82.8726 10.5186 83.2622 11.3906C83.5282 11.972 83.6735 12.8317 83.6982 13.9697V14.9067L83.689 15.7695C83.689 16.2829 83.7539 16.9478 83.8838 17.7642C84.0199 18.5744 84.0879 19.2331 84.0879 19.7402C84.0879 20.0124 83.9982 20.2319 83.8188 20.3989C83.6457 20.5721 83.4261 20.6587 83.1602 20.6587ZM102.438 14.3872C102.055 16.286 101.248 17.8044 100.017 18.9424C98.7925 20.0742 97.3452 20.6401 95.6753 20.6401C94.1538 20.6401 93.0127 20.2165 92.252 19.3691C91.4912 18.5156 91.1108 17.2384 91.1108 15.5376C91.1108 13.9357 91.4881 12.2874 92.2427 10.5928C93.0034 8.89193 93.9775 7.51888 95.165 6.47363C95.9567 5.77474 96.7948 5.42529 97.6792 5.42529C98.242 5.42529 98.9842 5.61084 99.9058 5.98193C101.031 6.42725 101.594 6.91895 101.594 7.45703C101.594 7.71061 101.501 7.93636 101.316 8.13428C101.13 8.33219 100.908 8.43115 100.648 8.43115C100.512 8.43115 100.32 8.35384 100.073 8.19922C99.1265 7.62402 98.3286 7.33643 97.6792 7.33643C97.2153 7.33643 96.7298 7.57764 96.2227 8.06006C95.9691 8.30127 95.6042 8.7404 95.1279 9.37744C93.6992 11.27 92.9849 13.3234 92.9849 15.5376C92.9849 16.7004 93.1642 17.5137 93.5229 17.9775C93.9126 18.4847 94.63 18.7383 95.6753 18.7383C96.7824 18.7383 97.7441 18.3888 98.5605 17.6899C99.4202 16.9478 100.02 15.887 100.36 14.5078C98.6471 14.5944 97.1782 14.9253 95.9536 15.5005C95.8114 15.5685 95.6722 15.6025 95.5361 15.6025C95.264 15.6025 95.0382 15.4974 94.8589 15.2871C94.6919 15.0954 94.6084 14.8727 94.6084 14.6191C94.6084 14.279 94.7723 14.0068 95.1001 13.8027C96.436 12.9863 98.7399 12.5781 102.012 12.5781C102.278 12.5781 102.5 12.6678 102.68 12.8472C102.859 13.0265 102.949 13.2523 102.949 13.5244C102.949 13.9264 102.779 14.214 102.438 14.3872ZM111.827 20.6123C111.71 20.6123 111.496 20.4762 111.187 20.2041C110.909 19.9505 110.701 19.7248 110.565 19.5269C109.972 19.8485 109.449 20.0897 108.998 20.2505C108.546 20.4175 108.169 20.501 107.866 20.501C106.418 20.501 105.364 20.0928 104.702 19.2764C104.077 18.5094 103.765 17.3343 103.765 15.751C103.765 14.2542 104.278 12.974 105.305 11.9102C106.338 10.8464 107.569 10.3145 108.998 10.3145C109.536 10.3145 110.139 10.4536 110.807 10.7319C111.648 11.0783 112.068 11.4958 112.068 11.9844C112.068 12.1514 112.007 12.2998 111.883 12.4297C111.821 12.6647 111.771 13.0513 111.734 13.5894C111.703 14.1274 111.685 14.8171 111.679 15.6582C111.673 16.4251 111.725 17.0312 111.836 17.4766C111.898 17.7487 112.093 18.293 112.421 19.1094C112.464 19.2207 112.535 19.3846 112.634 19.6011L112.69 19.7588C112.69 20.0062 112.603 20.2103 112.43 20.3711C112.257 20.5319 112.056 20.6123 111.827 20.6123ZM109.897 14.1646C109.897 13.8986 109.913 13.611 109.944 13.3018C109.981 12.9863 110.034 12.6523 110.102 12.2998C109.873 12.1823 109.675 12.0957 109.508 12.04C109.347 11.9844 109.217 11.9565 109.118 11.9565C108.16 11.9565 107.331 12.3493 106.632 13.1348C105.939 13.9141 105.593 14.814 105.593 15.8345C105.593 16.8488 105.772 17.6095 106.131 18.1167C106.49 18.6239 107.028 18.8774 107.745 18.8774C108.339 18.8774 108.843 18.7692 109.257 18.5527C109.48 18.4352 109.792 18.2002 110.194 17.8477C109.996 16.2087 109.897 14.981 109.897 14.1646ZM126.086 20.77C125.579 20.77 125.282 20.501 125.196 19.9629C125.084 19.2826 124.973 18.3239 124.862 17.0869L124.546 14.2109C124.485 13.7842 124.379 13.3667 124.231 12.9585C124.021 12.4019 123.792 12.1235 123.544 12.1235C123.316 12.1235 122.889 12.3184 122.264 12.708C121.67 13.0667 121.281 13.3543 121.095 13.5708C121.089 14.1522 121.104 14.7336 121.142 15.3149L121.42 17.792C121.537 18.7692 121.596 19.5763 121.596 20.2134C121.596 20.4855 121.51 20.7082 121.336 20.8813C121.169 21.0607 120.953 21.1504 120.687 21.1504C120.421 21.1504 120.201 21.0607 120.028 20.8813C119.861 20.7082 119.778 20.4855 119.778 20.2134C119.778 19.465 119.701 18.361 119.546 16.9014C119.397 15.4355 119.323 14.3285 119.323 13.5801C119.323 12.9245 119.23 12.4142 119.045 12.0493C118.612 12.2472 118.173 12.5688 117.728 13.0142L116.633 14.2388C116.534 14.3872 116.376 14.582 116.16 14.8232C116.16 15.1943 116.126 15.7417 116.058 16.4653C115.99 17.189 115.956 17.724 115.956 18.0703C115.956 18.2559 115.983 18.5156 116.039 18.8496C116.101 19.1836 116.132 19.4248 116.132 19.5732C116.132 19.8268 116.036 20.0402 115.844 20.2134C115.659 20.3866 115.439 20.4731 115.186 20.4731C114.487 20.4731 114.137 19.6784 114.137 18.0889C114.137 17.7178 114.171 17.1642 114.239 16.4282C114.307 15.6922 114.341 15.1387 114.341 14.7676C114.341 14.4398 114.31 13.9481 114.249 13.2925C114.193 12.6369 114.165 12.1421 114.165 11.8081C114.165 10.4041 114.48 9.70215 115.111 9.70215C115.353 9.70215 115.572 9.80729 115.77 10.0176C115.974 10.2279 116.076 10.4567 116.076 10.7041C116.076 10.8216 116.061 11.0041 116.03 11.2515C115.999 11.4989 115.983 11.6875 115.983 11.8174L116.002 12.7915C116.324 12.1297 116.797 11.5329 117.421 11.001C118.046 10.4629 118.578 10.1938 119.017 10.1938C119.988 10.1938 120.656 10.6763 121.021 11.6411C121.361 11.1896 121.766 10.8525 122.236 10.6299C122.706 10.401 123.244 10.2866 123.851 10.2866C124.883 10.2866 125.589 10.8433 125.966 11.9565C126.04 12.1792 126.167 13.0482 126.346 14.5635C126.519 15.6273 126.742 17.3993 127.014 19.8794C127.033 20.1268 126.949 20.3371 126.764 20.5103C126.578 20.6834 126.352 20.77 126.086 20.77ZM133.406 20.4268C132.008 20.4268 130.877 20.0773 130.011 19.3784C129.064 18.6053 128.591 17.5229 128.591 16.1313C128.591 14.5233 128.981 13.175 129.76 12.0864C130.608 10.8989 131.739 10.3052 133.156 10.3052C134.182 10.3052 135.021 10.4784 135.67 10.8247C136.468 11.2515 136.867 11.9071 136.867 12.7915C136.867 13.41 136.517 13.9728 135.818 14.48C135.509 14.7026 134.854 15.049 133.852 15.519L130.308 17.1982C130.654 17.7116 131.084 18.0981 131.597 18.3579C132.117 18.6177 132.72 18.7476 133.406 18.7476C133.833 18.7476 134.334 18.6672 134.909 18.5063C135.639 18.3022 136.109 18.0363 136.319 17.7085C136.53 17.3745 136.755 17.2075 136.997 17.2075C137.213 17.2075 137.405 17.291 137.572 17.458C137.745 17.6188 137.832 17.8075 137.832 18.0239C137.832 18.7104 137.278 19.3011 136.171 19.7959C135.225 20.2165 134.303 20.4268 133.406 20.4268ZM133.156 11.9751C132.401 11.9751 131.773 12.2689 131.272 12.8564C130.771 13.4378 130.397 14.3161 130.15 15.4912L132.998 14.1367C134.118 13.5924 134.915 13.1193 135.392 12.7173C134.86 12.2225 134.114 11.9751 133.156 11.9751ZM145.114 17.6899C145.108 17.4302 145.195 17.2199 145.374 17.0591C145.56 16.8921 145.785 16.8086 146.051 16.8086C146.354 16.8086 146.62 16.9818 146.849 17.3281C147.165 17.7982 147.446 18.1167 147.693 18.2837C148.219 18.63 148.983 18.8032 149.985 18.8032C150.944 18.8032 151.834 18.596 152.657 18.1816C153.708 17.6497 154.234 16.9106 154.234 15.9644C154.234 15.1851 153.792 14.5697 152.907 14.1182C152.159 13.7285 151.234 13.5182 150.133 13.4873C149.156 13.4502 148.324 13.2368 147.638 12.8472C146.759 12.3462 146.32 11.6287 146.32 10.6948C146.32 9.59391 146.945 8.58887 148.194 7.67969C149.388 6.81999 150.622 6.39014 151.896 6.39014C152.496 6.39014 153.173 6.49219 153.928 6.69629C154.93 6.96224 155.431 7.30241 155.431 7.7168C155.431 8.26107 155.152 8.5332 154.596 8.5332C154.348 8.5332 153.915 8.46826 153.297 8.33838C152.678 8.20231 152.199 8.13737 151.859 8.14355C150.894 8.15592 150.075 8.39404 149.4 8.85791C148.708 9.33415 148.361 9.91243 148.361 10.5928C148.361 11.1061 148.819 11.4679 149.734 11.6782C150.075 11.7586 150.733 11.8328 151.71 11.9009C153.127 12.006 154.234 12.4513 155.032 13.2368C155.762 13.9543 156.126 14.8294 156.126 15.8623C156.126 17.3343 155.446 18.5094 154.085 19.3877C152.904 20.1484 151.534 20.5288 149.976 20.5288C148.844 20.5288 147.808 20.3123 146.868 19.8794C145.717 19.3475 145.133 18.6177 145.114 17.6899ZM162.667 20.4268C161.269 20.4268 160.137 20.0773 159.271 19.3784C158.325 18.6053 157.852 17.5229 157.852 16.1313C157.852 14.5233 158.242 13.175 159.021 12.0864C159.868 10.8989 161 10.3052 162.417 10.3052C163.443 10.3052 164.281 10.4784 164.931 10.8247C165.729 11.2515 166.127 11.9071 166.127 12.7915C166.127 13.41 165.778 13.9728 165.079 14.48C164.77 14.7026 164.114 15.049 163.112 15.519L159.568 17.1982C159.915 17.7116 160.345 18.0981 160.858 18.3579C161.377 18.6177 161.98 18.7476 162.667 18.7476C163.094 18.7476 163.595 18.6672 164.17 18.5063C164.9 18.3022 165.37 18.0363 165.58 17.7085C165.79 17.3745 166.016 17.2075 166.257 17.2075C166.474 17.2075 166.666 17.291 166.833 17.458C167.006 17.6188 167.092 17.8075 167.092 18.0239C167.092 18.7104 166.539 19.3011 165.432 19.7959C164.485 20.2165 163.564 20.4268 162.667 20.4268ZM162.417 11.9751C161.662 11.9751 161.034 12.2689 160.533 12.8564C160.032 13.4378 159.658 14.3161 159.411 15.4912L162.259 14.1367C163.378 13.5924 164.176 13.1193 164.652 12.7173C164.12 12.2225 163.375 11.9751 162.417 11.9751ZM175.961 13.144C175.918 13.9172 175.609 14.3037 175.034 14.3037C174.502 14.3037 174.236 13.9976 174.236 13.3853C174.236 13.2677 174.227 13.0513 174.208 12.7358L174.18 11.9565C173.203 12.0741 172.421 12.3493 171.833 12.7822C171.283 13.1842 170.825 13.7904 170.46 14.6006L170.479 19.6846C170.479 20.3092 170.172 20.6216 169.56 20.6216C169.016 20.6216 168.744 20.3092 168.744 19.6846V13.1719C168.744 12.9678 168.75 12.6616 168.762 12.2534C168.781 11.8452 168.79 11.5391 168.79 11.335C168.79 10.7103 169.062 10.3979 169.606 10.3979C170.213 10.3979 170.519 10.9113 170.525 11.938C171.712 10.7938 173.03 10.2217 174.477 10.2217C174.978 10.2217 175.352 10.4103 175.6 10.7876C175.847 11.1649 175.971 11.7339 175.971 12.4946C175.971 12.8162 175.968 13.0327 175.961 13.144ZM182.149 19.5176C182.131 20.0866 181.849 20.3711 181.305 20.3711C180.854 20.3711 180.526 20.1051 180.322 19.5732L178.902 15.8066L177.251 11.5483C177.189 11.3875 177.158 11.2453 177.158 11.1216C177.158 10.868 177.254 10.6515 177.446 10.4722C177.638 10.2928 177.86 10.2031 178.114 10.2031C178.485 10.2031 178.751 10.3918 178.912 10.769L181.268 17.2539C181.732 16.2643 182.316 14.8294 183.021 12.9492C183.188 12.4544 183.451 11.7555 183.81 10.8525C184.002 10.4567 184.274 10.2588 184.626 10.2588C184.88 10.2588 185.103 10.3485 185.294 10.5278C185.486 10.7072 185.582 10.9206 185.582 11.168C185.582 11.403 185.072 12.7266 184.051 15.1387L182.149 19.5176ZM188.885 8.25488C188.588 8.25488 188.331 8.14974 188.115 7.93945C187.898 7.72917 187.79 7.47559 187.79 7.17871C187.79 6.88184 187.898 6.62826 188.115 6.41797C188.331 6.20768 188.588 6.10254 188.885 6.10254C189.182 6.10254 189.435 6.20768 189.646 6.41797C189.862 6.62826 189.97 6.88184 189.97 7.17871C189.97 7.47559 189.862 7.72917 189.646 7.93945C189.435 8.14974 189.182 8.25488 188.885 8.25488ZM189.302 15.7881C189.302 16.1592 189.312 16.7158 189.33 17.458C189.355 18.194 189.367 18.7476 189.367 19.1187C189.367 19.3908 189.284 19.6134 189.117 19.7866C188.95 19.9598 188.73 20.0464 188.458 20.0464C188.192 20.0464 187.972 19.9598 187.799 19.7866C187.632 19.6134 187.549 19.3908 187.549 19.1187C187.549 18.7476 187.536 18.194 187.512 17.458C187.493 16.7158 187.484 16.1592 187.484 15.7881C187.484 15.2067 187.515 14.4831 187.577 13.6172C187.639 12.7451 187.669 12.0184 187.669 11.437C187.669 11.1587 187.753 10.9329 187.92 10.7598C188.093 10.5866 188.313 10.5 188.579 10.5C188.845 10.5 189.061 10.5866 189.228 10.7598C189.401 10.9329 189.488 11.1587 189.488 11.437C189.488 12.0184 189.457 12.7451 189.395 13.6172C189.333 14.4831 189.302 15.2067 189.302 15.7881ZM196.631 20.5845C195.363 20.5845 194.306 20.201 193.458 19.4341C192.568 18.63 192.123 17.5693 192.123 16.252C192.123 14.9964 192.54 13.7007 193.375 12.3647C194.303 10.8804 195.348 10.1382 196.511 10.1382C197.117 10.1382 197.794 10.2804 198.542 10.5649C199.489 10.9299 199.962 11.3752 199.962 11.9009C199.962 12.1359 199.885 12.3462 199.73 12.5317C199.575 12.7111 199.384 12.8008 199.155 12.8008C198.975 12.8008 198.818 12.7482 198.682 12.6431C198.552 12.5317 198.425 12.4235 198.301 12.3184C197.936 12.0277 197.34 11.8823 196.511 11.8823C195.88 11.8823 195.255 12.4451 194.637 13.5708C194.074 14.6037 193.792 15.4974 193.792 16.252C193.792 17.0684 194.071 17.7116 194.627 18.1816C195.147 18.6208 195.815 18.8403 196.631 18.8403C197.002 18.8403 197.398 18.7414 197.819 18.5435L198.895 17.9683C199.081 17.8693 199.214 17.8198 199.294 17.8198C199.523 17.8198 199.721 17.9126 199.888 18.0981C200.055 18.2775 200.138 18.4847 200.138 18.7197C200.138 19.1712 199.662 19.6073 198.709 20.0278C197.875 20.3989 197.182 20.5845 196.631 20.5845ZM206.53 20.4268C205.132 20.4268 204.001 20.0773 203.135 19.3784C202.188 18.6053 201.715 17.5229 201.715 16.1313C201.715 14.5233 202.105 13.175 202.884 12.0864C203.732 10.8989 204.863 10.3052 206.28 10.3052C207.306 10.3052 208.145 10.4784 208.794 10.8247C209.592 11.2515 209.991 11.9071 209.991 12.7915C209.991 13.41 209.641 13.9728 208.942 14.48C208.633 14.7026 207.978 15.049 206.976 15.519L203.432 17.1982C203.778 17.7116 204.208 18.0981 204.721 18.3579C205.241 18.6177 205.844 18.7476 206.53 18.7476C206.957 18.7476 207.458 18.6672 208.033 18.5063C208.763 18.3022 209.233 18.0363 209.443 17.7085C209.654 17.3745 209.879 17.2075 210.121 17.2075C210.337 17.2075 210.529 17.291 210.696 17.458C210.869 17.6188 210.956 17.8075 210.956 18.0239C210.956 18.7104 210.402 19.3011 209.295 19.7959C208.349 20.2165 207.427 20.4268 206.53 20.4268ZM206.28 11.9751C205.525 11.9751 204.897 12.2689 204.396 12.8564C203.896 13.4378 203.521 14.3161 203.274 15.4912L206.122 14.1367C207.242 13.5924 208.039 13.1193 208.516 12.7173C207.984 12.2225 207.238 11.9751 206.28 11.9751ZM218.869 12.8564C218.529 12.8564 218.291 12.742 218.155 12.5132C218.062 12.3524 217.982 12.0184 217.914 11.5112C217.45 11.6287 216.735 11.8452 215.771 12.1606C214.775 12.5565 214.274 13.0451 214.268 13.6265C214.453 13.6945 214.636 13.744 214.815 13.7749C216.237 14.0285 217.295 14.3779 217.988 14.8232C218.996 15.4727 219.5 16.4128 219.5 17.6436C219.5 18.6517 219.064 19.4124 218.192 19.9258C217.468 20.3464 216.553 20.5566 215.446 20.5566C214.636 20.5566 213.862 20.4206 213.126 20.1484C212.174 19.8021 211.698 19.3197 211.698 18.7012C211.698 18.4538 211.794 18.2373 211.985 18.0518C212.183 17.8662 212.406 17.7734 212.653 17.7734C212.845 17.7734 213.092 17.9219 213.396 18.2188C213.544 18.361 213.878 18.4785 214.397 18.5713C214.812 18.6455 215.161 18.6826 215.446 18.6826C215.965 18.6826 216.423 18.6208 216.819 18.4971C217.394 18.3177 217.682 18.0332 217.682 17.6436C217.682 16.8024 217.094 16.2334 215.919 15.9365L214.954 15.7231C214.132 15.5438 213.547 15.3335 213.201 15.0923C212.7 14.7459 212.449 14.2233 212.449 13.5244C212.449 12.2318 213.058 11.3102 214.277 10.7598C214.648 10.5928 215.242 10.3949 216.058 10.166C216.875 9.93099 217.459 9.73307 217.812 9.57227C218.065 9.46094 218.34 9.40527 218.637 9.40527C218.903 9.40527 219.12 9.49186 219.287 9.66504C219.46 9.83822 219.546 10.064 219.546 10.3423C219.546 10.5216 219.583 10.7845 219.658 11.1309C219.738 11.4772 219.778 11.7401 219.778 11.9194C219.778 12.1978 219.692 12.4235 219.519 12.5967C219.352 12.7699 219.135 12.8564 218.869 12.8564Z" fill="black"/>
</svg>
