<?xml version="1.0" encoding="UTF-8" standalone="no"?>
<!DOCTYPE svg PUBLIC "-//W3C//DTD SVG 1.1//EN" "http://www.w3.org/Graphics/SVG/1.1/DTD/svg11.dtd">
<svg width="100%" height="100%" viewBox="0 0 118 24" version="1.1" xmlns="http://www.w3.org/2000/svg" xmlns:xlink="http://www.w3.org/1999/xlink" xml:space="preserve" xmlns:serif="http://www.serif.com/" style="fill-rule:evenodd;clip-rule:evenodd;">
    <g id="Artboard1" transform="matrix(0.907692,0,0,1.02939,0,0)">
        <rect x="0" y="0" width="130" height="23.315" style="fill:none;"/>
        <clipPath id="_clip1">
            <rect x="0" y="0" width="130" height="23.315"/>
        </clipPath>
        <g clip-path="url(#_clip1)">
            <g transform="matrix(0.251748,0,0,0.221985,111.588,4.19353)">
                <path d="M65,20.55L65,47.45C65,57.136 57.136,65 47.45,65L20.55,65C10.864,65 3,57.136 3,47.45L3,20.55C3,10.864 10.864,3 20.55,3L47.45,3C57.136,3 65,10.864 65,20.55Z" style="fill:none;stroke:black;stroke-width:6px;"/>
            </g>
            <g transform="matrix(0.678325,0,0,0.598129,-1451.11,-8452.64)">
                <g transform="matrix(37.2875,0,0,37.2875,2300.73,14161.7)">
                </g>
                <text x="2211.13px" y="14161.7px" style="font-family:'Cartridge-Regular', 'Cartridge';font-size:37.288px;">O<tspan x="2238.91px 2261.06px " y="14161.7px 14161.7px ">pe</tspan>n</text>
            </g>
            <g transform="matrix(0.275659,0,0,0.243069,-784.976,-3448.23)">
                <g transform="matrix(30,0,0,30,3304.07,14246.8)">
                </g>
                <text x="3262.91px" y="14246.8px" style="font-family:'Cartridge-Bold', 'Cartridge';font-weight:700;font-size:30px;">G<tspan x="3284.63px " y="14246.8px ">B</tspan></text>
            </g>
            <g transform="matrix(1.10169,0,0,0.971446,0,0)">
                <path d="M39.677,1L33.873,22.66" style="fill:none;fill-rule:nonzero;stroke:black;stroke-opacity:0.4;stroke-width:1px;"/>
            </g>
            <g transform="matrix(1.10169,0,0,0.971446,0,0)">
                <path d="M7.333,1.563C7.333,1.252 7.08,1 6.77,1L2.553,1C1.144,1 0,2.144 0,3.553L0,20.445C0,21.854 1.144,22.998 2.553,22.998L6.77,22.998C7.08,22.998 7.333,22.746 7.333,22.435L7.333,1.563ZM19.53,15.48C18.912,14.371 17.509,13.47 16.4,13.47L9.943,13.47C9.602,13.47 9.479,13.747 9.67,14.089L13.517,20.992C14.135,22.102 15.538,23.003 16.648,23.003L23.104,23.003C23.445,23.003 23.568,22.725 23.377,22.384L19.53,15.48ZM19.8,6.133C19.8,3.3 17.5,1 14.667,1L10.138,1C9.804,1 9.534,1.27 9.534,1.604L9.534,10.662C9.534,10.995 9.804,11.266 10.138,11.266L14.667,11.266C17.5,11.266 19.8,8.966 19.8,6.133Z"/>
            </g>
        </g>
    </g>
</svg>
